{"title":"QI_XL_O_S15E14 Oddballs. revittony","magnet":"magnet:?xt=urn:btih:eb294eb7b88652fe9a67de5c75f0b78fc4b1aeb7&dn=QI_XL_O_S15E14+Oddballs.+revittony&tr=udp%3A%2F%2Ftracker.leechers-paradise.org%3A6969&tr=udp%3A%2F%2Fzer0day.ch%3A1337&tr=udp%3A%2F%2Fopen.demonii.com%3A1337&tr=udp%3A%2F%2Ftracker.coppersurfer.tk%3A6969&tr=udp%3A%2F%2Fexodus.desync.com%3A6969","uploader":"revittony1","categoryP":"video","categoryS":"tv_shows","size":"802903564","seeders":"0","leechers":"1","description":"Format : MPEG-4 \r\nFormat profile : Base Media \r\nCodec ID : isom (isom/iso2/avc1/mp41) \r\nOverall bit rate mode : Variable \r\nOverall bit rate : 2 390 kb/s \r\n\r\nVideo \r\nID : 1 \r\nFormat : AVC \r\nFormat/Info : Advanced Video Codec \r\nFormat profile : <a href=\"/cdn-cgi/l/email-protection\" class=\"__cf_email__\" data-cfemail=\"82caebe5eac2ceb6acb3\">[email&#xA0;protected]</a> \r\nFormat settings : CABAC / 2 Ref Frames \r\nFormat settings, CABAC : Yes \r\nFormat settings, RefFrames : 2 frames \r\nCodec ID : avc1 \r\nCodec ID/Info : Advanced Video Coding \r\nDuration : 44 min 24 s \r\nBit rate mode : Variable \r\nBit rate : 2 291 kb/s \r\nMaximum bit rate : 3 500 kb/s \r\nWidth : 1 280 pixels \r\nHeight : 720 pixels \r\nDisplay aspect ratio : 16:9 \r\nFrame rate mode : Constant \r\nFrame rate : 25.000 FPS \r\nColor space : YUV \r\nChroma subsampling : 4:2:0 \r\nBit depth : 8 bits \r\nScan type : Progressive \r\nBits/(Pixel*Frame) : 0.099 \r\nStream size : 728 MiB (96%) \r\n\r\nAudio \r\nID : 2 \r\nFormat : AAC \r\nFormat/Info : Advanced Audio Codec \r\nFormat profile : LC \r\nCodec ID : mp4a-40-2 \r\nDuration : 44 min 24 s \r\nBit rate mode : Constant \r\nBit rate : 93.4 kb/s \r\nChannel(s) : 2 channels \r\nChannel positions : Front: L R \r\nSampling rate : 48.0 kHz \r\nFrame rate : 46.875 FPS (1024 SPF) \r\nCompression mode : Lossy \r\nStream size : 29.7 MiB (4%) \r\nDefault : Yes \r\nAlternate group : 1","last_updated":"2018-02-04T12:05:26.402Z","parsed":{"xt":"urn:btih:eb294eb7b88652fe9a67de5c75f0b78fc4b1aeb7","dn":"QI_XL_O_S15E14 Oddballs. revittony","tr":["udp://exodus.desync.com:6969","udp://open.demonii.com:1337","udp://tracker.coppersurfer.tk:6969","udp://tracker.leechers-paradise.org:6969","udp://zer0day.ch:1337"],"infoHash":"eb294eb7b88652fe9a67de5c75f0b78fc4b1aeb7","infoHashBuffer":{"type":"Buffer","data":[235,41,78,183,184,134,82,254,154,103,222,92,117,240,183,143,196,177,174,183]},"name":"QI_XL_O_S15E14 Oddballs. revittony","announce":["udp://exodus.desync.com:6969","udp://open.demonii.com:1337","udp://tracker.coppersurfer.tk:6969","udp://tracker.leechers-paradise.org:6969","udp://zer0day.ch:1337"],"urlList":[]}}